:SAMPLES-PER-SECOND 24
:FULLY-SPECIFIED
:DEGREES
650
root  -12.6897 35.9466 -34.9929 -0.05336 -4.5869 2.65341
RightUpLeg  -17.853 -14.7891 -24.8891
RightLeg  42.8085 10.159 9.66322
RightFoot  -16.4597 0.657931 17.0077
RightToes  -1.46215e-006 3.27826e-006 1.63871e-007
Spine  5.17781 0.329196 -0.599589
Spine1  12.5086 3.17082 -10.4205
HEad  -28.3655 -46.8041 29.4935
LeftShoulder1  2.11569 -4.05133 -21.6513
LeftArm  23.8227 32.1686 -30.6851
LeftForeArm  26.9254 -77.4098 -69.8793
LeftHand  -0.0143165 4.54334 -1.67046
RightShoulder  0.871209 0.715109 13.7957
RightArm  -30.9605 10.6453 -16.2881
RightForeArm  15.1498 0.711096 9.0426
RightHand  -1.59735 6.83173 -15.3993
LeftUpLeg  -21.9178 20.0555 14.8594
LeftLeg  41.6393 -4.90279 -4.25556
LeftFoot  -10.5224 0.170361 -14.9779
LeftToes  1.24762e-006 1.46925e-008 1.29056e-009
651
root  -11.5321 36.2843 -34.7568 -0.197906 -5.96628 1.6834
RightUpLeg  -15.4316 -12.6548 -25.2715
RightLeg  36.9968 10.73 8.30941
RightFoot  -13.5305 0.303325 20.2822
RightToes  -1.46215e-006 3.27826e-006 1.63871e-007
Spine  4.61506 0.0186414 -0.908446
Spine1  12.0927 2.38122 -9.15461
HEad  -25.7714 -46.8354 27.9361
LeftShoulder1  1.97997 -3.74586 -20.9156
LeftArm  19.6141 24.4386 -33.0414
LeftForeArm  35.3941 -77.7681 -71.408
LeftHand  -0.0259 5.04948 -1.01572
RightShoulder  0.915103 0.910374 13.8844
RightArm  -28.792 10.5591 -13.1346
RightForeArm  12.3124 9.71508 9.22237
RightHand  -1.78347 6.68545 -17.3426
LeftUpLeg  -20.5839 20.3974 14.2245
LeftLeg  41.2726 -4.2448 -3.57747
LeftFoot  -12.0504 -0.0146551 -14.0048
LeftToes  1.24762e-006 1.46925e-008 1.29056e-009
652
root  -10.0321 36.8664 -34.4708 -0.325729 -7.30603 0.512512
RightUpLeg  -13.1134 -10.6136 -25.7515
RightLeg  30.0757 9.89589 5.92238
RightFoot  -5.69251 -1.23555 23.9206
RightToes  -1.46215e-006 3.27826e-006 1.63871e-007
Spine  3.7993 -0.662783 -1.78434
Spine1  11.4689 0.770513 -6.36318
HEad  -21.1499 -46.2642 24.5523
LeftShoulder1  2.03036 -3.89211 -21.067
LeftArm  16.1814 13.7418 -35.9761
LeftForeArm  37.7798 -77.6223 -65.8305
LeftHand  -0.0295077 5.42032 0.0386471
RightShoulder  1.03548 1.3123 14.724
RightArm  -22.0967 8.92824 -7.54127
RightForeArm  0.724404 24.331 5.16918
RightHand  -1.61138 5.50763 -17.3402
LeftUpLeg  -18.4865 18.8108 13.071
LeftLeg  39.265 -2.75731 -2.02006
LeftFoot  -13.0022 -0.109202 -12.8452
LeftToes  1.24762e-006 1.46925e-008 1.29056e-009
653
root  -8.53372 37.5105 -34.2984 -0.640152 -8.87733 -0.91687
RightUpLeg  -14.5533 -8.78508 -25.3286
RightLeg  29.3352 6.56513 3.72262
RightFoot  5.71696 -3.13655 21.1074
RightToes  -1.46215e-006 3.27826e-006 1.63871e-007
Spine  3.56935 -1.6481 -3.80921
Spine1  10.6246 -1.59541 -2.20238
HEad  -15.5002 -44.6914 19.3954
LeftShoulder1  2.08152 -4.28922 -20.2846
LeftArm  14.3703 1.01014 -41.1482
LeftForeArm  35.1271 -76.4463 -53.2295
LeftHand  -0.02049 6.51125 1.39919
RightShoulder  1.24948 1.93108 16.3541
RightArm  -32.3011 5.83515 -0.271522
RightForeArm  1.48714 39.8363 9.29162
RightHand  -1.09252 3.68545 -14.1437
LeftUpLeg  -16.172 17.6691 12.1508
LeftLeg  36.7481 -0.910514 -0.340936
LeftFoot  -12.875 -0.0806271 -11.7191
LeftToes  1.24762e-006 1.46925e-008 1.29056e-009
654
root  -7.35457 38.0199 -34.2792 -1.34105 -9.40907 -2.14801
RightUpLeg  -19.9416 -8.21222 -24.0511
RightLeg  40.1909 4.49654 3.80057
RightFoot  10.6422 -3.00722 15.6752
RightToes  -1.46215e-006 3.27826e-006 1.63871e-007
Spine  4.20351 -3.00981 -8.34101
Spine1  10.3591 -5.00225 3.85494
HEad  -11.0019 -41.7457 14.8086
LeftShoulder1  1.82971 -4.41993 -16.377
LeftArm  15.4085 -12.9559 -51.2641
LeftForeArm  36.4639 -74.4715 -40.9851
LeftHand  -0.00638366 7.37322 1.82974
RightShoulder  1.54956 2.66402 18.6875
RightArm  -36.9006 0.841405 9.41975
RightForeArm  -3.91954 57.0414 17.954
RightHand  -0.706925 1.3918 -12.2797
LeftUpLeg  -14.1333 16.3999 11.4462
LeftLeg  34.3866 0.634449 0.852243
LeftFoot  -12.346 -0.0158278 -10.2064
LeftToes  1.24762e-006 1.46925e-008 1.29056e-009
655
root  -6.42459 38.4178 -34.3195 -2.04459 -7.63278 -3.40956
RightUpLeg  -26.2652 -9.56571 -22.1043
RightLeg  58.5147 3.46205 5.63925
RightFoot  7.6351 -2.29425 13.9769
RightToes  -1.46215e-006 3.27826e-006 1.63871e-007
Spine  5.95968 -4.64045 -13.4634
Spine1  9.89573 -9.09954 10.871
HEad  -8.40132 -38.5694 12.3171
LeftShoulder1  1.36154 -3.75641 -11.6017
LeftArm  25.3035 -29.2284 -66.5024
LeftForeArm  43.0529 -71.9875 -31.226
LeftHand  -0.0191301 8.25309 1.03825
RightShoulder  2.0904 3.69902 22.8536
RightArm  -37.5994 -8.9344 18.6174
RightForeArm  -0.048912 72.3776 41.7469
RightHand  -0.610513 0.147328 -12.8274
LeftUpLeg  -12.9531 13.2196 10.8049
LeftLeg  32.2388 1.99005 1.7304
LeftFoot  -11.6225 0.0485028 -8.4502
LeftToes  1.24762e-006 1.46925e-008 1.29056e-009
656
root  -5.62616 38.8431 -34.3041 -1.96095 -4.80522 -4.99915
RightUpLeg  -33.6156 -11.5932 -19.0927
RightLeg  77.984 1.7499 8.32743
RightFoot  4.40827 -1.86398 13.6373
RightToes  -1.46215e-006 3.27826e-006 1.63871e-007
Spine  8.34712 -6.53816 -17.5078
Spine1  8.06186 -13.1859 17.9675
HEad  -6.72083 -34.9593 10.4062
LeftShoulder1  0.867033 -2.0506 -8.09237
LeftArm  48.1375 -43.1059 -88.0557
LeftForeArm  48.8737 -69.2145 -24.5824
LeftHand  -0.029971 6.63451 0.519842
RightShoulder  2.94743 4.98488 28.7923
RightArm  -35.1867 -22.5884 25.8762
RightForeArm  35.8851 77.2316 103.595
RightHand  -0.537262 -1.32355 -15.2441
LeftUpLeg  -12.5235 10.5855 10.7346
LeftLeg  29.6688 1.8381 1.50735
LeftFoot  -10.4723 0.119412 -7.47436
LeftToes  1.24762e-006 1.46925e-008 1.29056e-009
657
root  -5.01442 39.2004 -34.183 -1.13403 -3.18738 -6.51398
RightUpLeg  -42.9334 -12.521 -14.8372
RightLeg  95.5135 -1.4095 12.6369
RightFoot  2.38094 -1.53714 12.8579
RightToes  -1.46215e-006 3.27826e-006 1.63871e-007
Spine  10.3169 -8.58781 -21.2379
Spine1  5.8852 -16.9294 24.8695
HEad  -5.441 -30.1057 7.6976
LeftShoulder1  0.433113 0.134063 -4.99142
LeftArm  72.9515 -48.4977 -110.126
LeftForeArm  49.7203 -67.1363 -21.479
LeftHand  -0.0600602 3.4706 2.52495
RightShoulder  3.69604 5.91194 33.3966
RightArm  -28.7907 -34.7032 31.5134
RightForeArm  43.5359 73.4675 131.445
RightHand  -0.311832 -3.8316 -22.7024
LeftUpLeg  -12.4857 10.2324 11.1501
LeftLeg  27.3603 0.656378 0.735616
LeftFoot  -9.51684 0.165842 -6.83669
LeftToes  1.24762e-006 1.46925e-008 1.29056e-009
658
root  -4.46321 39.4293 -34.0138 -0.796097 -4.03323 -7.98051
RightUpLeg  -51.7788 -11.3289 -9.7608
RightLeg  108.809 -6.40904 17.2472
RightFoot  -0.34312 -1.17754 12.1577
RightToes  -1.46215e-006 3.27826e-006 1.63871e-007
Spine  11.444 -9.77939 -23.0626
Spine1  4.96263 -19.0522 29.0053
HEad  -5.08697 -26.0116 5.21119
LeftShoulder1  0.247443 1.2706 -3.10883
LeftArm  84.1865 -47.8407 -121.505
LeftForeArm  47.9554 -66.5385 -20.9791
LeftHand  -0.159841 2.12751 5.42606
RightShoulder  3.90176 6.17785 34.418
RightArm  -21.9433 -41.5965 34.1079
RightForeArm  41.8914 72.7722 133.861
RightHand  0.198199 -6.10702 -31.0912
LeftUpLeg  -11.5999 9.6527 11.6446
LeftLeg  25.934 2.18995 1.5168
LeftFoot  -9.15283 0.153765 -5.169
LeftToes  1.24762e-006 1.46925e-008 1.29056e-009
659
root  -3.84271 39.6189 -33.8206 -1.493 -6.42412 -9.3855
RightUpLeg  -57.8745 -9.30348 -4.92652
RightLeg  117.623 -11.08 19.3444
RightFoot  -2.56415 -0.947562 12.0798
RightToes  -1.46215e-006 3.27826e-006 1.63871e-007
Spine  11.807 -9.62706 -21.7873
Spine1  5.35203 -18.791 28.4764
HEad  -5.37602 -24.5502 4.58204
LeftShoulder1  0.346491 0.698948 -4.49929
LeftArm  79.2605 -45.9748 -118.427
LeftForeArm  47.5071 -67.8395 -22.7188
LeftHand  -0.229079 2.16506 8.0088
RightShoulder  3.79176 6.10481 33.5804
RightArm  -20.2863 -41.0629 33.9075
RightForeArm  51.2814 72.0248 136.301
RightHand  0.327144 -6.53136 -32.5413
LeftUpLeg  -9.16648 8.62498 12.1136
LeftLeg  24.7382 5.507 3.1085
LeftFoot  -8.9622 0.122438 -3.30606
LeftToes  1.24762e-006 1.46925e-008 1.29056e-009
660
root  -3.23303 39.7886 -33.5945 -2.13075 -7.69261 -10.2259
RightUpLeg  -61.513 -9.36101 -1.24072
RightLeg  122.341 -14.2825 20.4497
RightFoot  -3.27333 -0.912761 12.5779
RightToes  -1.46215e-006 3.27826e-006 1.63871e-007
Spine  11.3992 -9.06667 -19.5797
Spine1  5.94289 -17.4951 25.9374
HEad  -5.16699 -25.2346 5.13013
LeftShoulder1  0.727308 -0.879799 -9.18311
LeftArm  65.381 -44.1169 -105.44
LeftForeArm  47.4513 -70.6496 -27.3785
LeftHand  -0.264043 2.5955 10.6671
RightShoulder  3.63591 5.91739 32.7137
RightArm  -24.0533 -35.0998 32.7615
RightForeArm  68.5666 70.5853 140.709
RightHand  -0.274917 -4.34341 -29.923
LeftUpLeg  -7.08151 8.56367 12.1039
LeftLeg  23.462 7.01818 3.62684
LeftFoot  -8.67663 0.0979137 -1.97054
LeftToes  1.24762e-006 1.46925e-008 1.29056e-009
661
root  -2.65651 39.9278 -33.3663 -2.3069 -7.85686 -10.8716
RightUpLeg  -62.5952 -10.7566 1.31356
RightLeg  122.657 -15.9404 22.2529
RightFoot  -4.10344 -0.843764 12.8439
RightToes  -1.46215e-006 3.27826e-006 1.63871e-007
Spine  10.0555 -8.2482 -16.3826
Spine1  6.53111 -15.4996 22.3644
HEad  -4.47998 -27.6914 5.43929
LeftShoulder1  1.39148 -2.65295 -15.8076
LeftArm  47.4765 -40.3664 -87.2157
LeftForeArm  46.9924 -74.5367 -38.3078
LeftHand  -0.179869 3.90211 13.1568
RightShoulder  3.42038 5.6617 31.4337
RightArm  -27.4425 -27.1299 30.8363
RightForeArm  97.4352 67.9647 147.727
RightHand  -0.633118 -2.86365 -28.8911
LeftUpLeg  -5.86432 8.03969 11.5385
LeftLeg  22.0558 8.85435 4.22352
LeftFoot  -8.38286 0.0520127 -0.0628337
LeftToes  1.24762e-006 1.46925e-008 1.29056e-009
662
root  -2.11476 40.059 -33.1076 -2.65569 -9.4184 -11.851
RightUpLeg  -60.9174 -10.2041 3.33306
RightLeg  120.501 -15.0626 22.7814
RightFoot  -5.71891 -0.673613 12.8714
RightToes  -1.46215e-006 3.27826e-006 1.63871e-007
Spine  7.86109 -6.65277 -10.8903
Spine1  8.10958 -12.206 16.2769
HEad  -3.93985 -31.1296 5.94984
LeftShoulder1  2.1578 -4.17416 -21.7651
LeftArm  30.3207 -32.0854 -68.7029
LeftForeArm  43.7336 -77.2429 -56.4769
LeftHand  -0.171708 3.84755 12.1587
RightShoulder  3.05394 5.25316 28.9646
RightArm  -24.0001 -16.1873 31.042
RightForeArm  137.901 62.9439 157.4
RightHand  0.0848861 -5.87351 -24.7012
LeftUpLeg  -3.6409 7.36125 11.2715
LeftLeg  20.1122 12.0682 5.35331
LeftFoot  -8.24759 0.00612477 1.61406
LeftToes  1.24762e-006 1.46925e-008 1.29056e-009
663
root  -1.72615 40.1474 -32.8977 -2.73817 -11.0731 -12.6448
RightUpLeg  -58.0502 -8.55783 5.10802
RightLeg  117.866 -12.9256 21.9222
RightFoot  -6.69928 -0.583219 13.205
RightToes  -1.46215e-006 3.27826e-006 1.63871e-007
Spine  5.69899 -5.58543 -5.78176
Spine1  9.82377 -9.42779 9.88913
HEad  -2.97442 -33.6118 7.52647
LeftShoulder1  2.69582 -5.29255 -24.4559
LeftArm  19.6757 -18.6773 -54.8506
LeftForeArm  24.6689 -77.0246 -64.1036
LeftHand  -0.182966 0.579072 4.67484
RightShoulder  2.37527 4.35433 24.1279
RightArm  -5.09692 -1.07882 42.9971
RightForeArm  172.946 62.6002 161.697
RightHand  0.364806 -9.90656 -11.1522
LeftUpLeg  -2.33537 8.29864 11.811
LeftLeg  19.4838 13.3917 5.20045
LeftFoot  -8.28037 -0.00282242 1.96478
LeftToes  1.24762e-006 1.46925e-008 1.29056e-009
664
root  -1.50782 40.085 -32.87 -1.93794 -10.0397 -13.0691
RightUpLeg  -55.0125 -8.5995 6.34356
RightLeg  114.814 -11.0356 21.4438
RightFoot  -7.61394 -0.495095 13.5575
RightToes  -1.46215e-006 3.27826e-006 1.63871e-007
Spine  4.45112 -5.54537 -3.11061
Spine1  9.86478 -8.32767 6.36015
HEad  -2.28328 -36.1487 9.53844
LeftShoulder1  3.00473 -6.10066 -25.1236
LeftArm  18.6945 -4.62669 -46.0553
LeftForeArm  -3.33103 -74.8879 -53.3682
LeftHand  0.126156 -0.549018 -2.42494
RightShoulder  1.52964 2.90225 17.3132
RightArm  22.2338 13.1617 63.6164
RightForeArm  171.831 75.241 144.068
RightHand  -0.0885343 -10.489 0.67522
LeftUpLeg  -5.07872 13.0664 12.209
LeftLeg  22.2185 11.1459 4.44055
LeftFoot  -8.53839 -0.0225739 3.02245
LeftToes  1.24762e-006 1.46925e-008 1.29056e-009
